<svg width="512" height="512" viewBox="0 0 512 512" fill="none" xmlns="http://www.w3.org/2000/svg">
  <!-- Background Circle -->
  <circle cx="256" cy="256" r="256" fill="#28A745"/>

  <!-- Recycling Symbol (White) - Larger -->
  <g transform="translate(128, 128)">
    <!-- Top Arrow -->
    <path d="M128 53 L101 93 L112 93 L112 133 L144 133 L144 93 L155 93 Z" fill="white"/>
    <!-- Bottom Left Arrow -->
    <path d="M80 187 L53 147 L64 147 L64 107 L96 107 L96 147 L107 147 Z" fill="white" transform="rotate(120 128 128)"/>
    <!-- Bottom Right Arrow -->
    <path d="M176 187 L149 147 L160 147 L160 107 L192 107 L192 147 L203 147 Z" fill="white" transform="rotate(240 128 128)"/>
  </g>

  <!-- Center Circle (decorative) -->
  <circle cx="256" cy="256" r="40" fill="white" opacity="0.3"/>

  <!-- Text "ECO" -->
  <text x="256" y="420" font-family="Arial, sans-serif" font-size="48" font-weight="bold" fill="white" text-anchor="middle">ECO</text>
</svg>
